<?xml version="1.0" encoding="utf-8"?>
<!-- Generator: Adobe Illustrator 23.0.0, SVG Export Plug-In . SVG Version: 6.00 Build 0)  -->
<svg version="1.1" id="图层_1" xmlns="http://www.w3.org/2000/svg" xmlns:xlink="http://www.w3.org/1999/xlink" x="0px" y="0px"
	 viewBox="0 0 178.83 178.83" style="enable-background:new 0 0 178.83 178.83;" xml:space="preserve">
<path d="M157.97,64.41c10.46,0,18.94-8.39,18.94-18.75v-25c0-10.36-8.48-18.75-18.94-18.75H20.86c-10.46,0-18.94,8.39-18.94,18.75
	v25c0,10.36,8.48,18.75,18.94,18.75h31.06v25c0,3.45,2.8,6.25,6.25,6.25h56.25v18.75H20.86c-10.46,0-18.94,8.39-18.94,18.75v25
	c0,10.36,8.48,18.75,18.94,18.75h137.11c10.46,0,18.94-8.39,18.94-18.75v-25c0-10.36-8.48-18.75-18.94-18.75h-31.06v-25
	c0-3.45-2.8-6.25-6.25-6.25H64.41V64.41H157.97z M157.97,126.91c3.49,0,6.31,2.8,6.31,6.25v25c0,3.45-2.82,6.25-6.31,6.25H20.86
	c-3.49,0-6.31-2.8-6.31-6.25v-25c0-3.45,2.82-6.25,6.31-6.25H157.97z M14.54,45.66v-25c0-3.45,2.82-6.25,6.31-6.25h137.11
	c3.49,0,6.31,2.8,6.31,6.25v25c0,3.45-2.82,6.25-6.31,6.25H20.86C17.37,51.91,14.54,49.11,14.54,45.66z"/>
<path d="M51.91,151.91h75c3.45,0,6.25-2.8,6.25-6.25c0-3.45-2.8-6.25-6.25-6.25h-75c-3.45,0-6.25,2.8-6.25,6.25
	C45.66,149.11,48.46,151.91,51.91,151.91z M133.16,33.16c0-3.45-2.8-6.25-6.25-6.25h-75c-3.45,0-6.25,2.8-6.25,6.25
	s2.8,6.25,6.25,6.25h75C130.36,39.41,133.16,36.61,133.16,33.16z"/>
</svg>
